<?xml version="1.0" standalone="no"?>
<!DOCTYPE svg PUBLIC "-//W3C//DTD SVG 20010904//EN"
 "http://www.w3.org/TR/2001/REC-SVG-20010904/DTD/svg10.dtd">
<svg version="1.0" xmlns="http://www.w3.org/2000/svg"
 width="900.000000pt" height="500.000000pt" viewBox="0 210.000000 900.000000 500.000000"
 preserveAspectRatio="xMidYMid meet">
<metadata>
Created by potrace 1.10, written by Peter Selinger 2001-2011
</metadata>
<g transform="translate(0.000000,900.000000) scale(0.100000,-0.100000)"
fill="#000000" stroke="none">
<path d="M1781 6717 c-24 -26 -20 -51 10 -67 11 -6 317 -10 813 -10 776 0 796
0 806 -19 15 -30 14 -933 -2 -949 -9 -9 -114 -12 -413 -12 -422 0 -425 0 -425
-45 0 -45 3 -45 425 -45 299 0 404 -3 413 -12 16 -16 17 -919 2 -949 -10 -19
-34 -19 -1201 -19 -801 0 -1197 -3 -1210 -10 -24 -13 -25 -52 -1 -73 17 -16
119 -17 1218 -19 l1199 -3 3 -469 c1 -338 -1 -473 -9 -482 -9 -12 -126 -14
-674 -14 -629 0 -663 -1 -678 -18 -22 -24 -21 -45 1 -65 17 -15 78 -17 678
-17 500 0 663 -3 672 -12 16 -16 17 -909 2 -939 -11 -19 -39 -19 -1598 -19
-1222 0 -1591 -3 -1600 -12 -15 -15 -15 -51 0 -66 9 -9 808 -12 3533 -12 2107
0 3525 -4 3531 -9 5 -5 83 -47 174 -94 92 -46 175 -89 185 -95 24 -13 246
-119 327 -156 31 -14 61 -26 67 -26 16 0 28 30 36 86 l6 51 -96 69 c-52 38
-103 74 -113 79 -48 28 -111 79 -106 86 3 5 94 9 203 9 217 0 225 2 219 57
l-3 28 -289 3 -288 2 -55 38 c-30 20 -65 44 -78 52 -13 8 -59 40 -102 69 -43
30 -125 87 -183 126 -58 38 -150 104 -205 146 -109 83 -358 310 -417 380 -20
24 -55 64 -77 89 -23 25 -39 50 -38 55 3 7 345 12 989 15 1046 5 1018 4 1018
51 0 10 -10 25 -22 33 -20 14 -136 16 -1051 16 l-1028 0 -24 26 c-51 55 -153
214 -231 359 -23 44 -54 100 -68 125 -14 25 -29 52 -32 60 -4 8 -23 51 -44 95
-21 44 -48 105 -60 135 -12 30 -28 66 -35 80 -8 14 -15 39 -17 55 l-3 30 766
5 c629 4 769 7 782 19 23 18 21 58 -2 71 -13 7 -281 10 -799 10 -612 0 -782 3
-789 13 -31 39 -91 316 -114 522 -15 142 -9 406 10 429 12 14 47 16 321 16
l307 0 12 24 c11 19 10 27 0 45 -14 21 -18 21 -309 21 -162 0 -301 4 -307 8
-10 6 -10 22 1 73 23 103 42 170 71 239 15 36 34 83 42 105 8 22 19 47 24 55
5 8 14 26 20 40 6 14 35 57 64 97 66 87 154 155 275 214 17 8 94 30 186 54
125 32 380 18 550 -31 28 -8 58 -14 67 -14 32 0 198 -79 277 -131 83 -56 199
-188 226 -259 3 -8 13 -28 22 -45 25 -45 23 -146 -3 -175 -47 -52 -105 -62
-177 -32 -64 26 -362 25 -433 -2 -140 -52 -218 -117 -271 -226 -33 -68 -64
-186 -64 -243 0 -45 36 -156 72 -217 4 -8 11 -22 15 -30 11 -26 65 -94 102
-128 45 -42 101 -76 182 -108 59 -24 76 -26 220 -26 117 -1 169 3 210 16 30 9
79 24 109 33 50 14 95 34 168 72 15 8 59 46 98 85 82 81 129 171 159 299 20
87 18 251 -5 342 -67 276 -82 305 -224 449 -61 62 -127 126 -146 142 -50 42
-198 154 -204 154 -3 0 -24 13 -48 29 -24 16 -86 50 -138 76 -52 25 -108 53
-123 61 -16 8 -35 14 -42 14 -8 0 -29 6 -47 14 -18 8 -60 21 -93 29 -154 40
-217 47 -395 47 -172 0 -238 -7 -380 -42 -25 -6 -61 -14 -80 -18 -102 -23
-317 -115 -455 -195 -33 -19 -67 -38 -75 -42 -86 -40 -304 -252 -387 -376 -82
-124 -156 -278 -172 -355 -3 -18 -10 -33 -16 -32 -7 0 -10 166 -10 478 l0 477
325 5 c179 4 326 7 328 8 1 1 2 18 2 37 0 24 -6 37 -19 45 -13 7 -613 10
-1869 10 l-1849 0 -22 -23z m2923 -83 c14 -5 16 -57 16 -484 0 -427 -2 -479
-16 -484 -9 -3 -103 -6 -209 -6 -182 0 -195 1 -205 19 -11 21 -15 917 -4 945
5 14 33 16 204 16 109 0 205 -3 214 -6z m0 -1070 c14 -5 16 -57 16 -484 0
-427 -2 -479 -16 -484 -9 -3 -101 -6 -204 -6 -170 0 -190 2 -199 18 -11 21
-19 932 -8 950 6 9 58 12 202 12 106 0 200 -3 209 -6z m207 -736 c9 -49 32
-128 50 -174 19 -47 7 -66 -38 -62 l-38 3 -3 129 c-3 125 1 166 15 153 3 -4
10 -26 14 -49z m-193 -817 c2 -373 0 -476 -10 -483 -16 -10 -379 -10 -394 0
-12 8 -31 933 -19 952 4 7 78 9 213 8 l207 -3 3 -474z m312 453 c32 -84 188
-382 241 -462 16 -24 29 -46 29 -49 0 -3 13 -22 28 -42 16 -20 32 -43 35 -51
14 -32 199 -276 225 -297 8 -7 12 -19 9 -28 -6 -13 -47 -15 -359 -13 l-353 3
-3 483 -2 482 70 0 c67 0 71 -1 80 -26z m-326 -1050 c14 -5 16 -57 16 -479 l0
-473 -22 -6 c-37 -9 -376 -7 -382 3 -8 13 -20 926 -13 945 6 14 32 16 196 16
104 0 196 -3 205 -6z m1081 -57 c32 -31 91 -85 133 -120 41 -34 93 -78 116
-97 23 -19 77 -61 121 -93 44 -31 117 -84 163 -117 45 -33 85 -60 88 -60 3 0
23 -13 44 -30 21 -16 40 -30 43 -30 3 0 34 -19 69 -43 35 -24 70 -46 78 -50 8
-4 27 -15 42 -25 40 -26 169 -104 198 -120 14 -7 39 -22 55 -32 17 -11 37 -23
45 -27 8 -4 30 -17 48 -30 33 -22 33 -22 10 -28 -13 -3 -502 -4 -1088 -3
l-1065 3 -3 470 c-1 259 0 476 3 483 4 10 90 12 423 10 l419 -3 58 -58z"/>
<path d="M8390 6298 c-30 -11 -74 -34 -98 -53 -45 -35 -112 -113 -112 -131 0
-6 -7 -25 -16 -43 -12 -24 -15 -53 -12 -114 5 -103 39 -178 111 -243 75 -67
125 -86 232 -88 81 -1 97 2 147 28 74 37 131 95 168 169 26 53 30 70 30 148 0
78 -3 93 -31 145 -51 97 -111 148 -217 185 -69 24 -131 23 -202 -3z"/>
<path d="M8388 4980 c-108 -44 -185 -120 -221 -220 -44 -119 -3 -277 93 -364
69 -62 138 -88 239 -88 75 0 95 4 140 27 77 38 137 98 171 170 58 122 35 274
-57 376 -96 106 -247 147 -365 99z"/>
</g>
</svg>
